# xmcd
#
# Track frame offsets: 
#        182
#        32542
#        64075
#        89067
#        117860
#        139332
#        168677
#        192852
#        220505
#        241975
#        262482
#        282212
#        305232
#
# Disc length: 4451 seconds
#
# Revision: 35
# Processed by: cddbd v1.5.2PL0 Copyright (c) Steve Scherf et al.
# Submitted via: ExactAudioCopy v1.0b6
#
DISCID=cb11610d
DTITLE=Aphex Twin - Classics
DYEAR=1995
DGENRE=Electronic
TTITLE0=Digeridoo
TTITLE1=Flaphead
TTITLE2=Phloam
TTITLE3=Isopropanol
TTITLE4=Polynomial-C
TTITLE5=Tamphex (Hedphuq Mix)
TTITLE6=Phlange Phace
TTITLE7=Dodeccaheedron
TTITLE8=Analogue Bubblebath I
TTITLE9=Metapharstic
TTITLE10=Mescalinum United - We Have Arrived (Aphex Twin QQT Mix)
TTITLE11=Mescalinum United - We Have Arrived (Aphex Twin TTQ Mix)
TTITLE12=Digeridoo (Live In Cornwall, 1990)
EXTD=
EXTT0=
EXTT1=
EXTT2=
EXTT3=
EXTT4=
EXTT5=
EXTT6=
EXTT7=
EXTT8=
EXTT9=
EXTT10=
EXTT11=
EXTT12=
PLAYORDER=
